<?xml version="1.0" standalone="no"?>
<!DOCTYPE svg PUBLIC "-//W3C//DTD SVG 20010904//EN"
 "http://www.w3.org/TR/2001/REC-SVG-20010904/DTD/svg10.dtd">
<svg version="1.0" xmlns="http://www.w3.org/2000/svg"
 width="1067.000000pt" height="1067.000000pt" viewBox="0 0 1067.000000 1067.000000"
 preserveAspectRatio="xMidYMid meet">

<g transform="translate(0.000000,1067.000000) scale(0.100000,-0.100000)"
fill="#E9524D" stroke="none">
<path d="M3260 9819 c-291 -34 -587 -207 -753 -441 -69 -97 -2056 -3543 -2089
-3623 -70 -168 -98 -360 -79 -531 13 -118 47 -244 90 -337 31 -69 1978 -3445
2045 -3547 159 -241 387 -401 675 -473 l86 -21 2068 -3 c2253 -4 2162 -6 2347
53 98 31 200 80 285 137 91 62 219 191 279 281 74 109 2020 3482 2063 3573 18
40 46 116 61 170 25 90 27 113 27 278 0 165 -2 188 -27 277 -15 53 -40 125
-56 160 -31 69 -1987 3462 -2058 3571 -148 226 -386 388 -674 460 l-85 21
-2065 2 c-1136 1 -2099 -2 -2140 -7z m960 -4479 l0 -1980 -395 0 -395 0 0
1980 0 1980 395 0 395 0 0 -1980z m3140 1565 l0 -415 -1195 0 -1195 0 0 415 0
415 1195 0 1195 0 0 -415z m-2 -1582 l2 -413 -1195 0 -1195 0 0 415 0 415
1193 -2 1192 -3 3 -412z m0 -1540 l2 -423 -1195 0 -1195 0 0 425 0 425 1193
-2 1192 -3 3 -422z"/>
</g>
</svg>
